<svg width="90" height="23" viewBox="0 0 90 23" fill="none" xmlns="http://www.w3.org/2000/svg">
<path d="M2.35693 20.905H21.5406V2.095H2.35693V20.905ZM17.8482 9.69013H13.7946V5.71547H17.8482V9.69013ZM6.04856 5.71547H10.1044V13.3099H17.8482V17.2845H6.04856V5.71547ZM34.0327 2.095C32.1356 2.095 30.2811 2.6466 28.7038 3.68004C27.1264 4.71347 25.897 6.18233 25.171 7.90088C24.445 9.61944 24.2551 11.5104 24.6252 13.3348C24.9953 15.1592 25.9088 16.835 27.2502 18.1503C28.5917 19.4657 30.3008 20.3614 32.1614 20.7243C34.0221 21.0872 35.9506 20.901 37.7033 20.1891C39.456 19.4773 40.954 18.2718 42.008 16.7251C43.062 15.1785 43.6245 13.3601 43.6245 11.5C43.6215 9.00652 42.61 6.61603 40.8118 4.85288C39.0137 3.08973 36.5757 2.09791 34.0327 2.095ZM34.0327 17.2845C32.8659 17.2845 31.7253 16.9453 30.7551 16.3096C29.785 15.6741 29.0288 14.7707 28.5823 13.7136C28.1358 12.6567 28.019 11.4936 28.2466 10.3715C28.4743 9.2494 29.0362 8.2187 29.8612 7.40972C30.6862 6.60074 31.7374 6.04982 32.8818 5.82662C34.0261 5.60342 35.2123 5.71798 36.2903 6.15579C37.3683 6.59361 38.2897 7.33503 38.9379 8.28631C39.5862 9.23752 39.9322 10.3559 39.9322 11.5C39.9298 13.0335 39.3074 14.5034 38.2016 15.5877C37.0957 16.6721 35.5966 17.2822 34.0327 17.2845ZM77.9486 2.095C76.0512 2.09486 74.1969 2.64633 72.6195 3.67968C71.042 4.71302 69.8125 6.18183 69.0864 7.90036C68.3603 9.61885 68.1702 11.51 68.5403 13.3344C68.9102 15.1588 69.8237 16.8347 71.1652 18.1501C72.5065 19.4655 74.2156 20.3613 76.0766 20.7242C77.9367 21.0872 79.8655 20.901 81.6186 20.1892C83.3709 19.4773 84.8689 18.2719 85.9227 16.7252C86.9773 15.1785 87.5397 13.3602 87.5397 11.5C87.5367 9.00667 86.5255 6.61627 84.7276 4.85314C82.9296 3.09001 80.4915 2.09811 77.9486 2.095ZM77.9486 17.2845C76.7819 17.2847 75.6413 16.9455 74.6709 16.31C73.7006 15.6745 72.9443 14.7711 72.4977 13.7142C72.0511 12.6572 71.9342 11.4941 72.1617 10.3719C72.3893 9.24984 72.9511 8.21907 73.7761 7.40998C74.6011 6.60092 75.6526 6.04993 76.7969 5.82667C77.9411 5.60341 79.1273 5.71792 80.205 6.15573C81.2835 6.59352 82.2049 7.33493 82.8533 8.28624C83.501 9.23752 83.8473 10.3559 83.8473 11.5C83.8451 13.0333 83.2228 14.5031 82.1167 15.5875C81.0113 16.6718 79.5125 17.282 77.9486 17.2845ZM55.9903 2.095C54.0932 2.095 52.2387 2.6466 50.6614 3.68004C49.084 4.71347 47.8546 6.18233 47.1286 7.90088C46.4026 9.61944 46.2127 11.5104 46.5828 13.3348C46.9529 15.1592 47.8664 16.835 49.2078 18.1503C50.5493 19.4657 52.2584 20.3614 54.119 20.7243C55.9796 21.0872 57.9082 20.901 59.6609 20.1891C61.4136 19.4773 62.9116 18.2718 63.9656 16.7251C65.0195 15.1785 65.5821 13.3601 65.5821 11.5C65.5791 9.00652 64.5676 6.61603 62.7694 4.85288C60.9712 3.08973 58.5333 2.09791 55.9903 2.095ZM55.9903 17.2845C54.9031 17.285 53.8371 16.9911 52.9096 16.435C51.9822 15.8789 51.2295 15.0824 50.7346 14.1333C50.2398 13.1842 50.0219 12.1195 50.1052 11.0568C50.1885 9.99395 50.5697 8.9744 51.2067 8.11061C51.8436 7.24686 52.7117 6.57245 53.7148 6.16186C54.718 5.75125 55.8175 5.62044 56.8917 5.78384C57.9659 5.94725 58.9732 6.39852 59.8024 7.08784C60.6316 7.77716 61.2504 8.67777 61.5906 9.69013H55.9903V13.3099H61.5906C61.201 14.4651 60.4504 15.4708 59.4451 16.1842C58.44 16.8976 57.2312 17.2826 55.9903 17.2845Z" fill="#D4CDF1"/>
</svg>
