<svg width="121" height="33" viewBox="0 0 121 33" fill="none" xmlns="http://www.w3.org/2000/svg">
<path d="M28.0611 11.7C28.3903 11.7 28.5 11.8189 28.5 12.1389V19.38H32.2211C32.5411 19.38 32.66 19.4989 32.66 19.8189V20.4589C32.66 20.7789 32.5411 20.8977 32.2211 20.8977H27.3206C27.0006 20.8977 26.8726 20.7789 26.8726 20.4589V12.1389C26.8726 11.8189 27.0006 11.7 27.3206 11.7H28.0611Z" fill="#D4CDF1"/>
<path d="M35.9058 14.8909C35.9058 12.7789 37.2406 11.508 39.5629 11.508C41.8852 11.508 43.22 12.7789 43.22 14.8909V17.7069C43.22 19.8189 41.876 21.0897 39.5629 21.0897C37.2498 21.0897 35.9058 19.8189 35.9058 17.7069V14.8909ZM41.684 14.8909C41.684 13.7023 40.9435 13.0623 39.6086 13.0623C38.2738 13.0623 37.5423 13.7114 37.5423 14.8909V17.7251C37.5423 18.9229 38.2738 19.5537 39.6086 19.5537C40.9435 19.5537 41.684 18.8954 41.684 17.7251V14.8909Z" fill="#D4CDF1"/>
<path d="M54.109 15.86C54.4656 15.86 54.5479 15.9789 54.5479 16.2989V18.036C54.5575 18.4452 54.4755 18.8514 54.3079 19.2247C54.1401 19.5981 53.891 19.9291 53.5787 20.1937C52.8031 20.8113 51.8252 21.1177 50.8359 21.0531C48.4679 21.0531 47.1787 19.7823 47.1787 17.6703V14.836C47.1787 12.7514 48.5136 11.4714 50.8359 11.4714C52.6644 11.4714 53.853 12.1937 54.3559 13.6383C54.384 13.6926 54.3991 13.7527 54.3999 13.8137C54.4007 13.8749 54.3873 13.9354 54.3607 13.9904C54.3341 14.0454 54.295 14.0935 54.2465 14.1308C54.198 14.168 54.1415 14.1935 54.0816 14.2051L53.3684 14.452C53.0576 14.5617 52.9296 14.4977 52.8199 14.1777C52.6684 13.7872 52.3911 13.4583 52.0317 13.243C51.6724 13.0278 51.2517 12.9384 50.8359 12.9891C49.4919 12.9891 48.7604 13.6383 48.7604 14.8177V17.7252C48.7604 18.9229 49.501 19.5537 50.8359 19.5537C52.1707 19.5537 52.9936 18.9412 52.9936 18.0452V17.3686H51.0096C50.6804 17.3686 50.5616 17.2406 50.5616 16.9206V16.2989C50.5616 15.9789 50.6804 15.86 51.0096 15.86H54.109Z" fill="#D4CDF1"/>
<path d="M58.3242 14.8909C58.3242 12.7789 59.6591 11.508 61.9814 11.508C64.3037 11.508 65.6385 12.7789 65.6385 14.8909V17.7069C65.6385 19.8189 64.2945 21.0897 61.9814 21.0897C59.6682 21.0897 58.3242 19.8189 58.3242 17.7069V14.8909ZM64.0934 14.8909C64.0934 13.7023 63.3528 13.0623 62.0271 13.0623C60.7014 13.0623 59.9516 13.7114 59.9516 14.8909V17.7251C59.9516 18.9229 60.6922 19.5537 62.0271 19.5537C63.3619 19.5537 64.0934 18.8954 64.0934 17.7251V14.8909Z" fill="#D4CDF1"/>
<path d="M69.9448 11.9651C69.9448 11.764 70.0088 11.7 70.21 11.7H70.6305C70.8317 11.7 70.8774 11.764 70.8774 11.9651V20.6326C70.8774 20.8337 70.8774 20.8977 70.6305 20.8977H70.21C70.0088 20.8977 69.9448 20.8337 69.9448 20.6326V11.9651Z" fill="#D4CDF1"/>
<path d="M79.2062 11.7C79.9676 11.7 80.6978 12.0024 81.2362 12.5409C81.7746 13.0792 82.077 13.8094 82.077 14.5709C82.077 15.3323 81.7746 16.0625 81.2362 16.6008C80.6978 17.1393 79.9676 17.4417 79.2062 17.4417H76.4633V20.6326C76.4633 20.8337 76.4176 20.8977 76.2256 20.8977H75.7959C75.6039 20.8977 75.5308 20.8337 75.5308 20.6326V11.9651C75.5308 11.764 75.6039 11.7 75.7959 11.7H79.2062ZM79.1239 16.5366C79.3857 16.5366 79.6449 16.485 79.8867 16.3849C80.1284 16.2847 80.3482 16.1378 80.5333 15.9528C80.7183 15.7677 80.8652 15.548 80.9654 15.3062C81.0655 15.0644 81.117 14.8052 81.117 14.5434C81.117 14.2817 81.0655 14.0225 80.9654 13.7806C80.8652 13.5389 80.7183 13.3191 80.5333 13.1341C80.3482 12.949 80.1284 12.8022 79.8867 12.702C79.6449 12.6018 79.3857 12.5503 79.1239 12.5503H76.381V16.5366H79.1239Z" fill="#D4CDF1"/>
<path d="M89.2176 11.5171C89.9235 11.4392 90.6356 11.5911 91.2484 11.9501C91.8608 12.3093 92.3417 12.8564 92.6187 13.5103C92.6919 13.6566 92.6187 13.7754 92.4724 13.8486L92.0701 14.0314C91.9056 14.0954 91.8416 14.0863 91.741 13.9126C91.5338 13.4273 91.1777 13.0204 90.724 12.7509C90.2705 12.4813 89.7428 12.363 89.2176 12.4131C87.6724 12.4131 86.8313 13.0257 86.8313 14.1229C86.8223 14.4581 86.9349 14.7854 87.1484 15.0442C87.3618 15.3029 87.6616 15.4758 87.9924 15.5309C88.4841 15.6912 88.994 15.7895 89.5101 15.8234C90.1349 15.8567 90.7512 15.9831 91.3387 16.1983C91.7895 16.3408 92.1771 16.6339 92.4368 17.0285C92.6964 17.4232 92.8125 17.8951 92.765 18.3651C92.765 20.0749 91.5216 21.108 89.2359 21.108C88.4861 21.1938 87.7297 21.02 87.0925 20.6157C86.4553 20.2115 85.9759 19.6011 85.7341 18.8863C85.718 18.8537 85.7093 18.818 85.7085 18.7816C85.7078 18.7452 85.7152 18.7092 85.73 18.676C85.7448 18.6428 85.7669 18.6133 85.7945 18.5896C85.822 18.5658 85.8545 18.5485 85.8896 18.5389L86.2919 18.3926C86.3235 18.3796 86.3576 18.3734 86.3918 18.3743C86.426 18.3752 86.4596 18.3832 86.4906 18.3979C86.5215 18.4125 86.5491 18.4333 86.5715 18.4592C86.594 18.4851 86.6109 18.5153 86.621 18.548C86.8255 19.0645 87.1892 19.5024 87.6594 19.7984C88.1295 20.0942 88.6817 20.2328 89.2359 20.1937C90.9639 20.1937 91.8141 19.5903 91.8141 18.3651C91.8306 18.0431 91.7319 17.7258 91.5357 17.4696C91.3398 17.2135 91.0594 17.0351 90.7444 16.9663C90.2714 16.8252 89.7835 16.7393 89.2907 16.7103L88.3033 16.5823C87.9943 16.5167 87.6891 16.4343 87.389 16.3354C87.0926 16.2459 86.8163 16.1 86.5753 15.9057C86.3327 15.6861 86.1416 15.4158 86.0151 15.114C85.8888 14.8122 85.8302 14.4864 85.8439 14.1594C85.9079 12.5594 87.1056 11.5171 89.2176 11.5171Z" fill="#D4CDF1"/>
<path d="M97.6932 17.7709C97.7316 18.4174 98.0159 19.0248 98.4877 19.4689C98.9595 19.9129 99.583 20.1602 100.23 20.1602C100.878 20.1602 101.501 19.9129 101.973 19.4689C102.445 19.0248 102.728 18.4174 102.767 17.7709V11.9651C102.767 11.764 102.831 11.7 103.033 11.7H103.453C103.654 11.7 103.718 11.764 103.718 11.9651V17.7617C103.718 19.8371 102.493 21.0897 100.235 21.0897C97.9766 21.0897 96.7515 19.8371 96.7515 17.7617V11.9651C96.7515 11.764 96.8155 11.7 97.0075 11.7H97.4372C97.6292 11.7 97.6932 11.764 97.6932 11.9651V17.7709Z" fill="#D4CDF1"/>
<path d="M116.335 11.7C116.536 11.7 116.6 11.764 116.6 11.9651V20.6326C116.6 20.8337 116.536 20.8977 116.335 20.8977H115.951C115.759 20.8977 115.695 20.8337 115.695 20.6326V15.3571C115.695 14.5896 115.747 13.8229 115.851 13.0623H115.796C115.511 13.7578 115.177 14.4329 114.799 15.0829L112.834 18.548C112.81 18.6082 112.768 18.6595 112.714 18.6955C112.66 18.7313 112.597 18.7501 112.532 18.7491H112.276C112.21 18.7495 112.146 18.7306 112.09 18.6949C112.035 18.6592 111.992 18.6082 111.965 18.548L109.972 15.0463C109.618 14.4056 109.313 13.7394 109.058 13.0531H109.003C109.096 13.8207 109.145 14.5931 109.149 15.3663V20.6326C109.149 20.8337 109.085 20.8977 108.884 20.8977H108.527C108.326 20.8977 108.262 20.8337 108.262 20.6326V11.9651C108.262 11.764 108.326 11.7 108.527 11.7H108.856C108.931 11.6931 109.007 11.7094 109.072 11.7471C109.138 11.7848 109.19 11.8418 109.222 11.9103L112.422 17.5971L115.604 11.9651C115.704 11.7731 115.759 11.7457 115.96 11.7457L116.335 11.7Z" fill="#D4CDF1"/>
<path d="M11.7962 19.508V26.1183C11.7962 26.3717 11.6955 26.6147 11.5163 26.7939C11.3372 26.9731 11.0942 27.0737 10.8407 27.0737C10.5874 27.0737 10.3444 26.9731 10.1652 26.7939C9.98597 26.6147 9.88531 26.3717 9.88531 26.1183V19.5171C10.1514 19.7114 10.4703 19.8199 10.7996 19.828C11.1585 19.8382 11.5103 19.7253 11.7962 19.508ZM19.9333 17.5971C19.6908 17.5971 19.4582 17.6935 19.2868 17.8649C19.1154 18.0364 19.019 18.269 19.019 18.5114V19.6634C19.019 19.9169 19.1197 20.1599 19.2989 20.339C19.478 20.5182 19.721 20.6189 19.9745 20.6189C20.2279 20.6189 20.4709 20.5182 20.65 20.339C20.8292 20.1599 20.9299 19.9169 20.9299 19.6634V18.5571C20.937 18.426 20.9158 18.2949 20.8677 18.1728C20.8196 18.0506 20.7458 17.9402 20.6512 17.8491C20.5567 17.7581 20.4436 17.6884 20.3198 17.6449C20.1959 17.6014 20.0641 17.5852 19.9333 17.5971ZM7.80988 22.0131C7.48089 22.0033 7.16241 21.895 6.8956 21.7023V28.3309C6.8956 28.5855 6.99673 28.8297 7.17678 29.0097C7.35681 29.1897 7.60099 29.2909 7.8556 29.2909C8.11021 29.2909 8.35438 29.1897 8.53442 29.0097C8.71446 28.8297 8.8156 28.5855 8.8156 28.3309V21.748C8.51704 21.941 8.16477 22.0339 7.80988 22.0131ZM16.9527 15.6131C16.8289 15.6069 16.7051 15.626 16.5888 15.6692C16.4726 15.7123 16.3663 15.7787 16.2764 15.8642C16.1867 15.9498 16.1153 16.0526 16.0664 16.1667C16.0177 16.2807 15.9926 16.4035 15.9927 16.5274V21.62C15.9927 21.8746 16.0939 22.1188 16.2739 22.2989C16.454 22.4789 16.6981 22.58 16.9527 22.58C17.2074 22.58 17.4516 22.4789 17.6316 22.2989C17.8116 22.1188 17.9127 21.8746 17.9127 21.62V16.5914C17.9201 16.4595 17.8987 16.3276 17.85 16.2047C17.8014 16.0818 17.7268 15.9709 17.6311 15.8797C17.5355 15.7884 17.4213 15.7189 17.2963 15.6761C17.1713 15.6333 17.0385 15.618 16.907 15.6314L16.9527 15.6131ZM13.9173 17.5697C13.5729 17.5673 13.2377 17.4588 12.9573 17.2589V23.9057C12.9573 24.1603 13.0584 24.4046 13.2385 24.5846C13.4186 24.7646 13.6627 24.8657 13.9173 24.8657C14.1719 24.8657 14.4161 24.7646 14.5962 24.5846C14.7762 24.4046 14.8773 24.1603 14.8773 23.9057V17.268C14.5873 17.484 14.2332 17.5967 13.8716 17.588L13.9173 17.5697ZM5.73445 22.6623V4.09314C5.73205 3.86679 5.64044 3.65055 5.47952 3.49134C5.31861 3.33214 5.10138 3.24285 4.87502 3.24286H4.67388C4.44752 3.24285 4.2303 3.33214 4.06938 3.49134C3.90847 3.65055 3.81686 3.86679 3.81445 4.09314V22.6623C3.81445 22.8902 3.905 23.1088 4.06617 23.27C4.22734 23.4312 4.44595 23.5217 4.67388 23.5217H4.87502C5.10296 23.5217 5.32156 23.4312 5.48273 23.27C5.64391 23.1088 5.73445 22.8902 5.73445 22.6623ZM7.91045 21.3091H7.70931C7.48138 21.3091 7.26277 21.2186 7.1016 21.0574C6.94043 20.8963 6.84988 20.6776 6.84988 20.4497V6.30572C6.8523 6.07938 6.9439 5.86311 7.10481 5.70391C7.26573 5.54471 7.48295 5.45542 7.70931 5.45543H7.91045C8.13681 5.45542 8.35404 5.54471 8.51495 5.70391C8.67587 5.86311 8.76748 6.07938 8.76988 6.30572V20.468C8.76988 20.6959 8.67933 20.9145 8.51816 21.0757C8.35699 21.2369 8.13838 21.3274 7.91045 21.3274V21.3091ZM10.9367 19.1331H10.7265C10.501 19.1331 10.2847 19.0435 10.1252 18.8841C9.96577 18.7246 9.87617 18.5084 9.87617 18.2829V8.5C9.87498 8.38757 9.8961 8.27602 9.93825 8.1718C9.9804 8.06758 10.0428 7.97277 10.1219 7.89284C10.201 7.81292 10.2952 7.74946 10.399 7.70616C10.5027 7.66286 10.614 7.64056 10.7265 7.64057H10.9367C11.1631 7.64299 11.3793 7.73459 11.5385 7.8955C11.6978 8.05642 11.787 8.27364 11.787 8.5V18.2829C11.787 18.5084 11.6974 18.7246 11.538 18.8841C11.3785 19.0435 11.1623 19.1331 10.9367 19.1331ZM13.963 16.8931H13.771C13.5446 16.8931 13.3274 16.8039 13.1665 16.6446C13.0056 16.4855 12.914 16.2692 12.9116 16.0429V10.7766C12.9041 10.6592 12.9207 10.5415 12.9606 10.4308C13.0004 10.3202 13.0625 10.2188 13.1431 10.1331C13.2236 10.0473 13.3209 9.97913 13.429 9.9325C13.537 9.88597 13.6534 9.86201 13.771 9.86229H13.9722C14.2001 9.86229 14.4187 9.9528 14.5799 10.114C14.7411 10.2752 14.8316 10.4938 14.8316 10.7217V16.0246C14.8328 16.1382 14.8115 16.2509 14.7688 16.3563C14.7262 16.4616 14.6631 16.5574 14.5831 16.6382C14.5032 16.719 14.4081 16.7831 14.3031 16.8269C14.1983 16.8707 14.0858 16.8931 13.9722 16.8931H13.963ZM16.9985 14.9274H16.7973C16.5694 14.9274 16.3508 14.8369 16.1896 14.6757C16.0284 14.5145 15.9379 14.2959 15.9379 14.068V12.7057C15.9403 12.4793 16.0319 12.2631 16.1928 12.1039C16.3537 11.9447 16.5709 11.8554 16.7973 11.8554H16.9985C17.2248 11.8554 17.4421 11.9447 17.603 12.1039C17.7639 12.2631 17.8555 12.4793 17.8579 12.7057V14.068C17.8579 14.2944 17.7686 14.5116 17.6094 14.6725C17.4502 14.8334 17.234 14.9251 17.0076 14.9274H16.9985Z" fill="#D4CDF1"/>
</svg>
