<svg width="58" height="23" viewBox="0 0 58 23" fill="none" xmlns="http://www.w3.org/2000/svg">
<g clip-path="url(#clip0_18_247)">
<path d="M13.6872 0.5C11.4612 0.5 9.32641 1.38737 7.7524 2.9669L2.6155 8.12183C1.04149 9.70135 0.157227 11.8436 0.157227 14.0774C0.157227 18.7291 3.91494 22.5 8.55033 22.5C10.7763 22.5 12.9111 21.6126 14.4851 20.0331L18.0383 16.4674C18.0383 16.4673 18.0384 16.4675 18.0383 16.4674L28.3912 6.07817C29.143 5.3238 30.1625 4.9 31.2257 4.9C33.0055 4.9 34.5145 6.0641 35.0376 7.67498L38.305 4.39617C36.8144 2.05345 34.2008 0.5 31.2257 0.5C28.9997 0.5 26.8649 1.38737 25.2909 2.9669L11.3848 16.9218C10.633 17.6762 9.61345 18.1 8.55033 18.1C6.33649 18.1 4.54184 16.2991 4.54184 14.0774C4.54184 13.0106 4.96416 11.9874 5.7159 11.2331L10.8528 6.07817C11.6045 5.3238 12.6241 4.9 13.6872 4.9C15.4671 4.9 16.976 6.06415 17.4992 7.67509L20.7666 4.39625C19.276 2.05349 16.6625 0.5 13.6872 0.5Z" fill="#D4CDF1"/>
<path d="M28.9232 16.9218C28.1715 17.6762 27.1519 18.1 26.0888 18.1C24.3092 18.1 22.8003 16.9362 22.277 15.3256L19.0098 18.6043C20.5004 20.9467 23.1138 22.5 26.0888 22.5C28.3148 22.5 30.4496 21.6126 32.0236 20.0331L45.9297 6.07817C46.6814 5.3238 47.701 4.9 48.7641 4.9C50.978 4.9 52.7726 6.70095 52.7726 8.92255C52.7726 9.98941 52.3503 11.0126 51.5986 11.7669L46.4617 16.9218C45.71 17.6762 44.6904 18.1 43.6273 18.1C41.8475 18.1 40.3386 16.936 39.8154 15.3252L36.5481 18.604C38.0386 20.9467 40.6522 22.5 43.6273 22.5C45.8533 22.5 47.9881 21.6126 49.5621 20.0331L54.6989 14.8782C56.2729 13.2986 57.1572 11.1564 57.1572 8.92255C57.1572 4.2709 53.3995 0.5 48.7641 0.5C46.5381 0.5 44.4033 1.38737 42.8293 2.9669L28.9232 16.9218Z" fill="#D4CDF1"/>
</g>
<defs>
<clipPath id="clip0_18_247">
<rect width="57" height="22" fill="white" transform="translate(0.157227 0.5)"/>
</clipPath>
</defs>
</svg>
