<svg xmlns="http://www.w3.org/2000/svg">
<defs>
<symbol id="logo"  fill="none">
<path fill-rule="evenodd" clip-rule="evenodd" d="M16.8727 5.73457C16.8727 4.96254 16.6893 4.20111 16.3369 3.51058C16.0323 2.91369 15.8535 2.26284 15.811 1.59679L15.7091 0L15.6073 1.59673C15.5647 2.26279 15.3859 2.91366 15.0813 3.51056C14.7289 4.2011 14.5455 4.96255 14.5455 5.7346V28.4699C14.5455 29.242 14.7289 30.0034 15.0813 30.694C15.3859 31.2909 15.5647 31.9418 15.6073 32.6078L15.7091 34.2045L15.811 32.6078C15.8535 31.9417 16.0323 31.2909 16.3369 30.694C16.6893 30.0034 16.8727 29.242 16.8727 28.4699V5.73457ZM10.5187 5.79088C10.8711 6.48141 11.0545 7.24288 11.0545 8.01491V26.1896C11.0545 26.9617 10.8711 27.7231 10.5187 28.4137C10.2141 29.0106 10.0353 29.6615 9.99273 30.3275L9.89091 31.9242L9.78909 30.3275C9.74655 29.6615 9.56771 29.0106 9.26313 28.4137C8.91069 27.7231 8.72727 26.9617 8.72727 26.1896V8.01491C8.72727 7.24288 8.91069 6.48141 9.26313 5.79088C9.56771 5.19398 9.74655 4.54313 9.78909 3.87707L9.89091 2.28031L9.99273 3.87707C10.0353 4.54313 10.2141 5.19398 10.5187 5.79088ZM8.14545 10.2952C8.14545 9.52312 7.96204 8.76171 7.6096 8.0712C7.30502 7.47426 7.12616 6.82342 7.08367 6.15736L6.98182 4.5606L6.87996 6.15736C6.83748 6.82342 6.65861 7.47426 6.35401 8.0712C6.00164 8.76171 5.81818 9.52312 5.81818 10.2952V23.9093C5.81818 24.6814 6.00164 25.4428 6.35401 26.1333C6.65861 26.7303 6.83748 27.3811 6.87996 28.0472L6.98182 29.6439L7.08367 28.0472C7.12616 27.3811 7.30502 26.7303 7.6096 26.1333C7.96204 25.4428 8.14545 24.6814 8.14545 23.9093V10.2952ZM4.70053 12.6317C5.05291 13.3223 5.23636 14.0837 5.23636 14.8558V19.3487C5.23636 20.1208 5.05291 20.8822 4.70053 21.5727C4.39593 22.1697 4.21707 22.8205 4.17458 23.4866L4.07273 25.0833L3.97087 23.4866C3.92839 22.8205 3.74952 22.1697 3.44492 21.5727C3.09255 20.8822 2.90909 20.1208 2.90909 19.3487V14.8558C2.90909 14.0837 3.09255 13.3223 3.44492 12.6317C3.74952 12.0349 3.92839 11.384 3.97087 10.718L4.07273 9.12121L4.17458 10.718C4.21707 11.384 4.39593 12.0349 4.70053 12.6317ZM2.32716 17.1023L2.32727 17.1361V17.0684L2.32716 17.1023ZM0 17.1361L0.000117398 17.1023C0.00539582 17.8628 0.188601 18.612 0.535833 19.2924C0.840429 19.8894 1.01929 20.5402 1.06178 21.2062L1.16364 22.803L1.26549 21.2062C1.30798 20.5402 1.48684 19.8894 1.79144 19.2924C2.13867 18.612 2.32188 17.8628 2.32716 17.1023C2.32188 16.3418 2.13867 15.5925 1.79144 14.9121C1.48684 14.3152 1.30798 13.6644 1.26549 12.9983L1.16364 11.4015L1.06178 12.9983C1.01929 13.6644 0.840429 14.3152 0.535833 14.9121C0.188601 15.5925 0.00539583 16.3418 0.000117398 17.1023L0 17.0684V17.1361ZM13.4278 3.51057C13.7802 4.2011 13.9636 4.96255 13.9636 5.73458V28.4699C13.9636 29.242 13.7802 30.0034 13.4278 30.694C13.1232 31.2909 12.9444 31.9417 12.9018 32.6078L12.8 34.2045L12.6982 32.6078C12.6556 31.9417 12.4768 31.2909 12.1722 30.694C11.8198 30.0034 11.6364 29.242 11.6364 28.4699V5.73458C11.6364 4.96255 11.8198 4.2011 12.1722 3.51057C12.4768 2.91367 12.6556 2.26281 12.6982 1.59676L12.8 0L12.9018 1.59676C12.9444 2.26281 13.1232 2.91367 13.4278 3.51057ZM19.246 3.51057C19.5984 4.2011 19.7818 4.96255 19.7818 5.73458V28.4699C19.7818 29.242 19.5984 30.0034 19.246 30.694C18.9414 31.2909 18.7625 31.9417 18.72 32.6078L18.6182 34.2045L18.5164 32.6078C18.4738 31.9417 18.295 31.2909 17.9904 30.694C17.638 30.0034 17.4545 29.242 17.4545 28.4699V5.73458C17.4545 4.96255 17.638 4.2011 17.9904 3.51057C18.295 2.91367 18.4738 2.26281 18.5164 1.59676L18.6182 0L18.72 1.59676C18.7625 2.26281 18.9414 2.91367 19.246 3.51057ZM22.6909 8.01491C22.6909 7.24288 22.5075 6.48141 22.1551 5.79088C21.8505 5.19398 21.6716 4.54313 21.6291 3.87707L21.5273 2.28031L21.4255 3.87707C21.3829 4.54313 21.2041 5.19398 20.8995 5.79088C20.5471 6.48141 20.3636 7.24288 20.3636 8.01491V26.1896C20.3636 26.9617 20.5471 27.7231 20.8995 28.4137C21.2041 29.0106 21.3829 29.6615 21.4255 30.3275L21.5273 31.9242L21.6291 30.3275C21.6716 29.6615 21.8505 29.0106 22.1551 28.4137C22.5075 27.7231 22.6909 26.9617 22.6909 26.1896V8.01491ZM25.0641 8.0712C25.4166 8.76171 25.6 9.52312 25.6 10.2952V23.9093C25.6 24.6814 25.4166 25.4428 25.0641 26.1333C24.7596 26.7303 24.5807 27.3811 24.5382 28.0472L24.4364 29.6439L24.3345 28.0472C24.292 27.3811 24.1132 26.7303 23.8086 26.1333C23.4562 25.4428 23.2727 24.6814 23.2727 23.9093V10.2952C23.2727 9.52312 23.4562 8.76171 23.8086 8.0712C24.1132 7.47426 24.292 6.82342 24.3345 6.15736L24.4364 4.5606L24.5382 6.15736C24.5807 6.82342 24.7596 7.47426 25.0641 8.0712ZM28.5091 14.8558C28.5091 14.0837 28.3257 13.3223 27.9732 12.6317C27.6687 12.0349 27.4898 11.384 27.4473 10.718L27.3455 9.12121L27.2436 10.718C27.2011 11.384 27.0223 12.0349 26.7177 12.6317C26.3653 13.3223 26.1818 14.0837 26.1818 14.8558V19.3487C26.1818 20.1208 26.3653 20.8822 26.7177 21.5727C27.0223 22.1697 27.2011 22.8205 27.2436 23.4866L27.3455 25.0833L27.4473 23.4866C27.4898 22.8205 27.6687 22.1697 27.9732 21.5727C28.3257 20.8822 28.5091 20.1208 28.5091 19.3487V14.8558ZM31.418 17.1023C31.4181 17.1135 31.4182 17.1248 31.4182 17.1361V17.0684C31.4182 17.0798 31.4181 17.091 31.418 17.1023ZM29.0911 17.1023C29.0963 17.8628 29.2795 18.612 29.6268 19.2924C29.9313 19.8894 30.1102 20.5402 30.1527 21.2062L30.2545 22.803L30.3564 21.2062C30.3989 20.5402 30.5777 19.8894 30.8823 19.2924C31.2296 18.612 31.4128 17.8628 31.418 17.1023C31.4128 16.3418 31.2296 15.5925 30.8823 14.9121C30.5777 14.3152 30.3989 13.6644 30.3564 12.9983L30.2545 11.4015L30.1527 12.9983C30.1102 13.6644 29.9313 14.3152 29.6268 14.9121C29.2795 15.5925 29.0963 16.3418 29.0911 17.1023ZM29.0911 17.1023C29.091 17.091 29.0909 17.0798 29.0909 17.0684V17.1361C29.0909 17.1248 29.091 17.1135 29.0911 17.1023Z" fill="#191A1E"/>
</symbol>

<symbol id="brand1" fill="none">
<g clip-path="url(#clip0_21_61)">
<path d="M14.1872 0.5C11.9612 0.5 9.82641 1.38737 8.2524 2.9669L3.1155 8.12183C1.54149 9.70135 0.657227 11.8436 0.657227 14.0774C0.657227 18.7291 4.41494 22.5 9.05033 22.5C11.2763 22.5 13.4111 21.6126 14.9851 20.0331L18.5383 16.4674C18.5383 16.4673 18.5384 16.4675 18.5383 16.4674L28.8912 6.07817C29.643 5.3238 30.6625 4.9 31.7257 4.9C33.5055 4.9 35.0145 6.0641 35.5376 7.67498L38.805 4.39617C37.3144 2.05345 34.7008 0.5 31.7257 0.5C29.4997 0.5 27.3649 1.38737 25.7909 2.9669L11.8848 16.9218C11.133 17.6762 10.1135 18.1 9.05033 18.1C6.83649 18.1 5.04184 16.2991 5.04184 14.0774C5.04184 13.0106 5.46416 11.9874 6.2159 11.2331L11.3528 6.07817C12.1045 5.3238 13.1241 4.9 14.1872 4.9C15.9671 4.9 17.476 6.06415 17.9992 7.67509L21.2666 4.39625C19.776 2.05349 17.1625 0.5 14.1872 0.5Z" fill="#D4CDF1"/>
<path d="M29.4232 16.9218C28.6715 17.6762 27.6519 18.1 26.5888 18.1C24.8092 18.1 23.3003 16.9362 22.777 15.3256L19.5098 18.6043C21.0004 20.9467 23.6138 22.5 26.5888 22.5C28.8148 22.5 30.9496 21.6126 32.5236 20.0331L46.4297 6.07817C47.1814 5.3238 48.201 4.9 49.2641 4.9C51.478 4.9 53.2726 6.70095 53.2726 8.92255C53.2726 9.98941 52.8503 11.0126 52.0986 11.7669L46.9617 16.9218C46.21 17.6762 45.1904 18.1 44.1273 18.1C42.3475 18.1 40.8386 16.936 40.3154 15.3252L37.0481 18.604C38.5386 20.9467 41.1522 22.5 44.1273 22.5C46.3533 22.5 48.4881 21.6126 50.0621 20.0331L55.1989 14.8782C56.7729 13.2986 57.6572 11.1564 57.6572 8.92255C57.6572 4.2709 53.8995 0.5 49.2641 0.5C47.0381 0.5 44.9033 1.38737 43.3293 2.9669L29.4232 16.9218Z" fill="#D4CDF1"/>
</g>
<defs>
<clipPath id="clip0_21_61">
<rect width="57" height="22" fill="white" transform="translate(0.657227 0.5)"/>
</clipPath>
</defs>
</symbol>

<symbol id="brand2"  fill="none">
<path d="M2.85693 20.905H22.0406V2.095H2.85693V20.905ZM18.3482 9.69013H14.2946V5.71547H18.3482V9.69013ZM6.54856 5.71547H10.6044V13.3099H18.3482V17.2845H6.54856V5.71547ZM34.5327 2.095C32.6356 2.095 30.7811 2.6466 29.2038 3.68004C27.6264 4.71347 26.397 6.18233 25.671 7.90088C24.945 9.61944 24.7551 11.5104 25.1252 13.3348C25.4953 15.1592 26.4088 16.835 27.7502 18.1503C29.0917 19.4657 30.8008 20.3614 32.6614 20.7243C34.5221 21.0872 36.4506 20.901 38.2033 20.1891C39.956 19.4773 41.454 18.2718 42.508 16.7251C43.562 15.1785 44.1245 13.3601 44.1245 11.5C44.1215 9.00652 43.11 6.61603 41.3118 4.85288C39.5137 3.08973 37.0757 2.09791 34.5327 2.095ZM34.5327 17.2845C33.3659 17.2845 32.2253 16.9453 31.2551 16.3096C30.285 15.6741 29.5288 14.7707 29.0823 13.7136C28.6358 12.6567 28.519 11.4936 28.7466 10.3715C28.9743 9.2494 29.5362 8.2187 30.3612 7.40972C31.1862 6.60074 32.2374 6.04982 33.3818 5.82662C34.5261 5.60342 35.7123 5.71798 36.7903 6.15579C37.8683 6.59361 38.7897 7.33503 39.4379 8.28631C40.0862 9.23752 40.4322 10.3559 40.4322 11.5C40.4298 13.0335 39.8074 14.5034 38.7016 15.5877C37.5957 16.6721 36.0966 17.2822 34.5327 17.2845ZM78.4486 2.095C76.5512 2.09486 74.6969 2.64633 73.1195 3.67968C71.542 4.71302 70.3125 6.18183 69.5864 7.90036C68.8603 9.61885 68.6702 11.51 69.0403 13.3344C69.4102 15.1588 70.3237 16.8347 71.6652 18.1501C73.0065 19.4655 74.7156 20.3613 76.5766 20.7242C78.4367 21.0872 80.3655 20.901 82.1186 20.1892C83.8709 19.4773 85.3689 18.2719 86.4227 16.7252C87.4773 15.1785 88.0397 13.3602 88.0397 11.5C88.0367 9.00667 87.0255 6.61627 85.2276 4.85314C83.4296 3.09001 80.9915 2.09811 78.4486 2.095ZM78.4486 17.2845C77.2819 17.2847 76.1413 16.9455 75.1709 16.31C74.2006 15.6745 73.4443 14.7711 72.9977 13.7142C72.5511 12.6572 72.4342 11.4941 72.6617 10.3719C72.8893 9.24984 73.4511 8.21907 74.2761 7.40998C75.1011 6.60092 76.1526 6.04993 77.2969 5.82667C78.4411 5.60341 79.6273 5.71792 80.705 6.15573C81.7835 6.59352 82.7049 7.33493 83.3533 8.28624C84.001 9.23752 84.3473 10.3559 84.3473 11.5C84.3451 13.0333 83.7228 14.5031 82.6167 15.5875C81.5113 16.6718 80.0125 17.282 78.4486 17.2845ZM56.4903 2.095C54.5932 2.095 52.7387 2.6466 51.1614 3.68004C49.584 4.71347 48.3546 6.18233 47.6286 7.90088C46.9026 9.61944 46.7127 11.5104 47.0828 13.3348C47.4529 15.1592 48.3664 16.835 49.7078 18.1503C51.0493 19.4657 52.7584 20.3614 54.619 20.7243C56.4796 21.0872 58.4082 20.901 60.1609 20.1891C61.9136 19.4773 63.4116 18.2718 64.4656 16.7251C65.5195 15.1785 66.0821 13.3601 66.0821 11.5C66.0791 9.00652 65.0676 6.61603 63.2694 4.85288C61.4712 3.08973 59.0333 2.09791 56.4903 2.095ZM56.4903 17.2845C55.4031 17.285 54.3371 16.9911 53.4096 16.435C52.4822 15.8789 51.7295 15.0824 51.2346 14.1333C50.7398 13.1842 50.5219 12.1195 50.6052 11.0568C50.6885 9.99395 51.0697 8.9744 51.7067 8.11061C52.3436 7.24686 53.2117 6.57245 54.2148 6.16186C55.218 5.75125 56.3175 5.62044 57.3917 5.78384C58.4659 5.94725 59.4732 6.39852 60.3024 7.08784C61.1316 7.77716 61.7504 8.67777 62.0906 9.69013H56.4903V13.3099H62.0906C61.701 14.4651 60.9504 15.4708 59.9451 16.1842C58.94 16.8976 57.7312 17.2826 56.4903 17.2845Z" fill="#D4CDF1"/>
</symbol>

<symbol  id="brand3" fill="none">
<path d="M28.5611 11.7C28.8903 11.7 29 11.8189 29 12.1389V19.38H32.7211C33.0411 19.38 33.16 19.4989 33.16 19.8189V20.4589C33.16 20.7789 33.0411 20.8977 32.7211 20.8977H27.8206C27.5006 20.8977 27.3726 20.7789 27.3726 20.4589V12.1389C27.3726 11.8189 27.5006 11.7 27.8206 11.7H28.5611Z" fill="#D4CDF1"/>
<path d="M36.4058 14.8909C36.4058 12.7789 37.7406 11.508 40.0629 11.508C42.3852 11.508 43.72 12.7789 43.72 14.8909V17.7069C43.72 19.8189 42.376 21.0897 40.0629 21.0897C37.7498 21.0897 36.4058 19.8189 36.4058 17.7069V14.8909ZM42.184 14.8909C42.184 13.7023 41.4435 13.0623 40.1086 13.0623C38.7738 13.0623 38.0423 13.7114 38.0423 14.8909V17.7251C38.0423 18.9229 38.7738 19.5537 40.1086 19.5537C41.4435 19.5537 42.184 18.8954 42.184 17.7251V14.8909Z" fill="#D4CDF1"/>
<path d="M54.609 15.86C54.9656 15.86 55.0479 15.9789 55.0479 16.2989V18.036C55.0575 18.4452 54.9755 18.8514 54.8079 19.2247C54.6401 19.5981 54.391 19.9291 54.0787 20.1937C53.3031 20.8113 52.3252 21.1177 51.3359 21.0531C48.9679 21.0531 47.6787 19.7823 47.6787 17.6703V14.836C47.6787 12.7514 49.0136 11.4714 51.3359 11.4714C53.1644 11.4714 54.353 12.1937 54.8559 13.6383C54.884 13.6926 54.8991 13.7527 54.8999 13.8137C54.9007 13.8749 54.8873 13.9354 54.8607 13.9904C54.8341 14.0454 54.795 14.0935 54.7465 14.1308C54.698 14.168 54.6415 14.1935 54.5816 14.2051L53.8684 14.452C53.5576 14.5617 53.4296 14.4977 53.3199 14.1777C53.1684 13.7872 52.8911 13.4583 52.5317 13.243C52.1724 13.0278 51.7517 12.9384 51.3359 12.9891C49.9919 12.9891 49.2604 13.6383 49.2604 14.8177V17.7252C49.2604 18.9229 50.001 19.5537 51.3359 19.5537C52.6707 19.5537 53.4936 18.9412 53.4936 18.0452V17.3686H51.5096C51.1804 17.3686 51.0616 17.2406 51.0616 16.9206V16.2989C51.0616 15.9789 51.1804 15.86 51.5096 15.86H54.609Z" fill="#D4CDF1"/>
<path d="M58.8242 14.8909C58.8242 12.7789 60.1591 11.508 62.4814 11.508C64.8037 11.508 66.1385 12.7789 66.1385 14.8909V17.7069C66.1385 19.8189 64.7945 21.0897 62.4814 21.0897C60.1682 21.0897 58.8242 19.8189 58.8242 17.7069V14.8909ZM64.5934 14.8909C64.5934 13.7023 63.8528 13.0623 62.5271 13.0623C61.2014 13.0623 60.4516 13.7114 60.4516 14.8909V17.7251C60.4516 18.9229 61.1922 19.5537 62.5271 19.5537C63.8619 19.5537 64.5934 18.8954 64.5934 17.7251V14.8909Z" fill="#D4CDF1"/>
<path d="M70.4448 11.9651C70.4448 11.764 70.5088 11.7 70.71 11.7H71.1305C71.3317 11.7 71.3774 11.764 71.3774 11.9651V20.6326C71.3774 20.8337 71.3774 20.8977 71.1305 20.8977H70.71C70.5088 20.8977 70.4448 20.8337 70.4448 20.6326V11.9651Z" fill="#D4CDF1"/>
<path d="M79.7062 11.7C80.4676 11.7 81.1978 12.0024 81.7362 12.5409C82.2746 13.0792 82.577 13.8094 82.577 14.5709C82.577 15.3323 82.2746 16.0625 81.7362 16.6008C81.1978 17.1393 80.4676 17.4417 79.7062 17.4417H76.9633V20.6326C76.9633 20.8337 76.9176 20.8977 76.7256 20.8977H76.2959C76.1039 20.8977 76.0308 20.8337 76.0308 20.6326V11.9651C76.0308 11.764 76.1039 11.7 76.2959 11.7H79.7062ZM79.6239 16.5366C79.8857 16.5366 80.1449 16.485 80.3867 16.3849C80.6284 16.2847 80.8482 16.1378 81.0333 15.9528C81.2183 15.7677 81.3652 15.548 81.4654 15.3062C81.5655 15.0644 81.617 14.8052 81.617 14.5434C81.617 14.2817 81.5655 14.0225 81.4654 13.7806C81.3652 13.5389 81.2183 13.3191 81.0333 13.1341C80.8482 12.949 80.6284 12.8022 80.3867 12.702C80.1449 12.6018 79.8857 12.5503 79.6239 12.5503H76.881V16.5366H79.6239Z" fill="#D4CDF1"/>
<path d="M89.7176 11.5171C90.4235 11.4392 91.1356 11.5911 91.7484 11.9501C92.3608 12.3093 92.8417 12.8564 93.1187 13.5103C93.1919 13.6566 93.1187 13.7754 92.9724 13.8486L92.5701 14.0314C92.4056 14.0954 92.3416 14.0863 92.241 13.9126C92.0338 13.4273 91.6777 13.0204 91.224 12.7509C90.7705 12.4813 90.2428 12.363 89.7176 12.4131C88.1724 12.4131 87.3313 13.0257 87.3313 14.1229C87.3223 14.4581 87.4349 14.7854 87.6484 15.0442C87.8618 15.3029 88.1616 15.4758 88.4924 15.5309C88.9841 15.6912 89.494 15.7895 90.0101 15.8234C90.6349 15.8567 91.2512 15.9831 91.8387 16.1983C92.2895 16.3408 92.6771 16.6339 92.9368 17.0285C93.1964 17.4232 93.3125 17.8951 93.265 18.3651C93.265 20.0749 92.0216 21.108 89.7359 21.108C88.9861 21.1938 88.2297 21.02 87.5925 20.6157C86.9553 20.2115 86.4759 19.6011 86.2341 18.8863C86.218 18.8537 86.2093 18.818 86.2085 18.7816C86.2078 18.7452 86.2152 18.7092 86.23 18.676C86.2448 18.6428 86.2669 18.6133 86.2945 18.5896C86.322 18.5658 86.3545 18.5485 86.3896 18.5389L86.7919 18.3926C86.8235 18.3796 86.8576 18.3734 86.8918 18.3743C86.926 18.3752 86.9596 18.3832 86.9906 18.3979C87.0215 18.4125 87.0491 18.4333 87.0715 18.4592C87.094 18.4851 87.1109 18.5153 87.121 18.548C87.3255 19.0645 87.6892 19.5024 88.1594 19.7984C88.6295 20.0942 89.1817 20.2328 89.7359 20.1937C91.4639 20.1937 92.3141 19.5903 92.3141 18.3651C92.3306 18.0431 92.2319 17.7258 92.0357 17.4696C91.8398 17.2135 91.5594 17.0351 91.2444 16.9663C90.7714 16.8252 90.2835 16.7393 89.7907 16.7103L88.8033 16.5823C88.4943 16.5167 88.1891 16.4343 87.889 16.3354C87.5926 16.2459 87.3163 16.1 87.0753 15.9057C86.8327 15.6861 86.6416 15.4158 86.5151 15.114C86.3888 14.8122 86.3302 14.4864 86.3439 14.1594C86.4079 12.5594 87.6056 11.5171 89.7176 11.5171Z" fill="#D4CDF1"/>
<path d="M98.1932 17.7709C98.2316 18.4174 98.5159 19.0248 98.9877 19.4689C99.4595 19.9129 100.083 20.1602 100.73 20.1602C101.378 20.1602 102.001 19.9129 102.473 19.4689C102.945 19.0248 103.228 18.4174 103.267 17.7709V11.9651C103.267 11.764 103.331 11.7 103.533 11.7H103.953C104.154 11.7 104.218 11.764 104.218 11.9651V17.7617C104.218 19.8371 102.993 21.0897 100.735 21.0897C98.4766 21.0897 97.2515 19.8371 97.2515 17.7617V11.9651C97.2515 11.764 97.3155 11.7 97.5075 11.7H97.9372C98.1292 11.7 98.1932 11.764 98.1932 11.9651V17.7709Z" fill="#D4CDF1"/>
<path d="M116.835 11.7C117.036 11.7 117.1 11.764 117.1 11.9651V20.6326C117.1 20.8337 117.036 20.8977 116.835 20.8977H116.451C116.259 20.8977 116.195 20.8337 116.195 20.6326V15.3571C116.195 14.5896 116.247 13.8229 116.351 13.0623H116.296C116.011 13.7578 115.677 14.4329 115.299 15.0829L113.334 18.548C113.31 18.6082 113.268 18.6595 113.214 18.6955C113.16 18.7313 113.097 18.7501 113.032 18.7491H112.776C112.71 18.7495 112.646 18.7306 112.59 18.6949C112.535 18.6592 112.492 18.6082 112.465 18.548L110.472 15.0463C110.118 14.4056 109.813 13.7394 109.558 13.0531H109.503C109.596 13.8207 109.645 14.5931 109.649 15.3663V20.6326C109.649 20.8337 109.585 20.8977 109.384 20.8977H109.027C108.826 20.8977 108.762 20.8337 108.762 20.6326V11.9651C108.762 11.764 108.826 11.7 109.027 11.7H109.356C109.431 11.6931 109.507 11.7094 109.572 11.7471C109.638 11.7848 109.69 11.8418 109.722 11.9103L112.922 17.5971L116.104 11.9651C116.204 11.7731 116.259 11.7457 116.46 11.7457L116.835 11.7Z" fill="#D4CDF1"/>
<path d="M12.2962 19.508V26.1183C12.2962 26.3717 12.1955 26.6147 12.0163 26.7939C11.8372 26.9731 11.5942 27.0737 11.3407 27.0737C11.0874 27.0737 10.8444 26.9731 10.6652 26.7939C10.486 26.6147 10.3853 26.3717 10.3853 26.1183V19.5171C10.6514 19.7114 10.9703 19.8199 11.2996 19.828C11.6585 19.8382 12.0103 19.7253 12.2962 19.508ZM20.4333 17.5971C20.1908 17.5971 19.9582 17.6935 19.7868 17.8649C19.6154 18.0364 19.519 18.269 19.519 18.5114V19.6634C19.519 19.9169 19.6197 20.1599 19.7989 20.339C19.978 20.5182 20.221 20.6189 20.4745 20.6189C20.7279 20.6189 20.9709 20.5182 21.15 20.339C21.3292 20.1599 21.4299 19.9169 21.4299 19.6634V18.5571C21.437 18.426 21.4158 18.2949 21.3677 18.1728C21.3196 18.0506 21.2458 17.9402 21.1512 17.8491C21.0567 17.7581 20.9436 17.6884 20.8198 17.6449C20.6959 17.6014 20.5641 17.5852 20.4333 17.5971ZM8.30988 22.0131C7.98089 22.0033 7.66241 21.895 7.3956 21.7023V28.3309C7.3956 28.5855 7.49673 28.8297 7.67678 29.0097C7.85681 29.1897 8.10099 29.2909 8.3556 29.2909C8.61021 29.2909 8.85438 29.1897 9.03442 29.0097C9.21446 28.8297 9.3156 28.5855 9.3156 28.3309V21.748C9.01704 21.941 8.66477 22.0339 8.30988 22.0131ZM17.4527 15.6131C17.3289 15.6069 17.2051 15.626 17.0888 15.6692C16.9726 15.7123 16.8663 15.7787 16.7764 15.8642C16.6867 15.9498 16.6153 16.0526 16.5664 16.1667C16.5177 16.2807 16.4926 16.4035 16.4927 16.5274V21.62C16.4927 21.8746 16.5939 22.1188 16.7739 22.2989C16.954 22.4789 17.1981 22.58 17.4527 22.58C17.7074 22.58 17.9516 22.4789 18.1316 22.2989C18.3116 22.1188 18.4127 21.8746 18.4127 21.62V16.5914C18.4201 16.4595 18.3987 16.3276 18.35 16.2047C18.3014 16.0818 18.2268 15.9709 18.1311 15.8797C18.0355 15.7884 17.9213 15.7189 17.7963 15.6761C17.6713 15.6333 17.5385 15.618 17.407 15.6314L17.4527 15.6131ZM14.4173 17.5697C14.0729 17.5673 13.7377 17.4588 13.4573 17.2589V23.9057C13.4573 24.1603 13.5584 24.4046 13.7385 24.5846C13.9186 24.7646 14.1627 24.8657 14.4173 24.8657C14.6719 24.8657 14.9161 24.7646 15.0962 24.5846C15.2762 24.4046 15.3773 24.1603 15.3773 23.9057V17.268C15.0873 17.484 14.7332 17.5967 14.3716 17.588L14.4173 17.5697ZM6.23445 22.6623V4.09314C6.23205 3.86679 6.14044 3.65055 5.97952 3.49134C5.81861 3.33214 5.60138 3.24285 5.37502 3.24286H5.17388C4.94752 3.24285 4.7303 3.33214 4.56938 3.49134C4.40847 3.65055 4.31686 3.86679 4.31445 4.09314V22.6623C4.31445 22.8902 4.405 23.1088 4.56617 23.27C4.72734 23.4312 4.94595 23.5217 5.17388 23.5217H5.37502C5.60296 23.5217 5.82156 23.4312 5.98273 23.27C6.14391 23.1088 6.23445 22.8902 6.23445 22.6623ZM8.41045 21.3091H8.20931C7.98138 21.3091 7.76277 21.2186 7.6016 21.0574C7.44043 20.8963 7.34988 20.6776 7.34988 20.4497V6.30572C7.3523 6.07938 7.4439 5.86311 7.60481 5.70391C7.76573 5.54471 7.98295 5.45542 8.20931 5.45543H8.41045C8.63681 5.45542 8.85404 5.54471 9.01495 5.70391C9.17587 5.86311 9.26748 6.07938 9.26988 6.30572V20.468C9.26988 20.6959 9.17933 20.9145 9.01816 21.0757C8.85699 21.2369 8.63838 21.3274 8.41045 21.3274V21.3091ZM11.4367 19.1331H11.2265C11.001 19.1331 10.7847 19.0435 10.6252 18.8841C10.4658 18.7246 10.3762 18.5084 10.3762 18.2829V8.5C10.375 8.38757 10.3961 8.27602 10.4382 8.1718C10.4804 8.06758 10.5428 7.97277 10.6219 7.89284C10.701 7.81292 10.7952 7.74946 10.899 7.70616C11.0027 7.66286 11.114 7.64056 11.2265 7.64057H11.4367C11.6631 7.64299 11.8793 7.73459 12.0385 7.8955C12.1978 8.05642 12.287 8.27364 12.287 8.5V18.2829C12.287 18.5084 12.1974 18.7246 12.038 18.8841C11.8785 19.0435 11.6623 19.1331 11.4367 19.1331ZM14.463 16.8931H14.271C14.0446 16.8931 13.8274 16.8039 13.6665 16.6446C13.5056 16.4855 13.414 16.2692 13.4116 16.0429V10.7766C13.4041 10.6592 13.4207 10.5415 13.4606 10.4308C13.5004 10.3202 13.5625 10.2188 13.6431 10.1331C13.7236 10.0473 13.8209 9.97913 13.929 9.9325C14.037 9.88597 14.1534 9.86201 14.271 9.86229H14.4722C14.7001 9.86229 14.9187 9.9528 15.0799 10.114C15.2411 10.2752 15.3316 10.4938 15.3316 10.7217V16.0246C15.3328 16.1382 15.3115 16.2509 15.2688 16.3563C15.2262 16.4616 15.1631 16.5574 15.0831 16.6382C15.0032 16.719 14.9081 16.7831 14.8031 16.8269C14.6983 16.8707 14.5858 16.8931 14.4722 16.8931H14.463ZM17.4985 14.9274H17.2973C17.0694 14.9274 16.8508 14.8369 16.6896 14.6757C16.5284 14.5145 16.4379 14.2959 16.4379 14.068V12.7057C16.4403 12.4793 16.5319 12.2631 16.6928 12.1039C16.8537 11.9447 17.0709 11.8554 17.2973 11.8554H17.4985C17.7248 11.8554 17.9421 11.9447 18.103 12.1039C18.2639 12.2631 18.3555 12.4793 18.3579 12.7057V14.068C18.3579 14.2944 18.2686 14.5116 18.1094 14.6725C17.9502 14.8334 17.734 14.9251 17.5076 14.9274H17.4985Z" fill="#D4CDF1"/>
</symbol>

</defs>
</svg>